<?xml version="1.0" encoding="UTF-8"?>
<svg width="700pt" height="700pt" version="1.1" viewBox="0 0 700 700" xmlns="http://www.w3.org/2000/svg" xmlns:xlink="http://www.w3.org/1999/xlink">
 <defs>
  <symbol id="u" overflow="visible">
   <path d="m18.766-1.125c-0.96875 0.5-1.9805 0.875-3.0312 1.125-1.043 0.25781-2.1367 0.39062-3.2812 0.39062-3.3984 0-6.0898-0.94531-8.0781-2.8438-1.9922-1.9062-2.9844-4.4844-2.9844-7.7344 0-3.2578 0.99219-5.8359 2.9844-7.7344 1.9883-1.9062 4.6797-2.8594 8.0781-2.8594 1.1445 0 2.2383 0.13281 3.2812 0.39062 1.0508 0.25 2.0625 0.625 3.0312 1.125v4.2188c-0.98047-0.65625-1.9453-1.1406-2.8906-1.4531-0.94922-0.3125-1.9492-0.46875-3-0.46875-1.875 0-3.3516 0.60547-4.4219 1.8125-1.0742 1.1992-1.6094 2.8555-1.6094 4.9688 0 2.1055 0.53516 3.7617 1.6094 4.9688 1.0703 1.1992 2.5469 1.7969 4.4219 1.7969 1.0508 0 2.0508-0.14844 3-0.45312 0.94531-0.3125 1.9102-0.80078 2.8906-1.4688z"/>
  </symbol>
  <symbol id="b" overflow="visible">
   <path d="m13.734-11.141c-0.4375-0.19531-0.87109-0.34375-1.2969-0.4375-0.41797-0.10156-0.83984-0.15625-1.2656-0.15625-1.2617 0-2.2305 0.40625-2.9062 1.2188-0.67969 0.80469-1.0156 1.9531-1.0156 3.4531v7.0625h-4.8906v-15.312h4.8906v2.5156c0.625-1 1.3438-1.7266 2.1562-2.1875 0.82031-0.46875 1.8008-0.70312 2.9375-0.70312 0.16406 0 0.34375 0.011719 0.53125 0.03125 0.19531 0.011719 0.47656 0.039062 0.84375 0.078125z"/>
  </symbol>
  <symbol id="a" overflow="visible">
   <path d="m17.641-7.7031v1.4062h-11.453c0.125 1.1484 0.53906 2.0078 1.25 2.5781 0.70703 0.57422 1.7031 0.85938 2.9844 0.85938 1.0312 0 2.082-0.14844 3.1562-0.45312 1.082-0.3125 2.1914-0.77344 3.3281-1.3906v3.7656c-1.1562 0.4375-2.3125 0.76562-3.4688 0.98438-1.1562 0.22656-2.3125 0.34375-3.4688 0.34375-2.7734 0-4.9297-0.70312-6.4688-2.1094-1.5312-1.4062-2.2969-3.3789-2.2969-5.9219 0-2.5 0.75391-4.4609 2.2656-5.8906 1.5078-1.4375 3.582-2.1562 6.2188-2.1562 2.4062 0 4.332 0.73047 5.7812 2.1875 1.4453 1.4492 2.1719 3.3828 2.1719 5.7969zm-5.0312-1.625c0-0.92578-0.27344-1.6719-0.8125-2.2344-0.54297-0.57031-1.25-0.85938-2.125-0.85938-0.94922 0-1.7188 0.26562-2.3125 0.79688s-0.96484 1.2969-1.1094 2.2969z"/>
  </symbol>
  <symbol id="c" overflow="visible">
   <path d="m9.2188-6.8906c-1.0234 0-1.793 0.17188-2.3125 0.51562-0.51172 0.34375-0.76562 0.85547-0.76562 1.5312 0 0.625 0.20703 1.1172 0.625 1.4688 0.41406 0.34375 0.98828 0.51562 1.7188 0.51562 0.92578 0 1.7031-0.32812 2.3281-0.98438 0.63281-0.66406 0.95312-1.4922 0.95312-2.4844v-0.5625zm7.4688-1.8438v8.7344h-4.9219v-2.2656c-0.65625 0.92969-1.3984 1.6055-2.2188 2.0312-0.82422 0.41406-1.8242 0.625-3 0.625-1.5859 0-2.8711-0.45703-3.8594-1.375-0.99219-0.92578-1.4844-2.1289-1.4844-3.6094 0-1.7891 0.61328-3.1016 1.8438-3.9375 1.2383-0.84375 3.1797-1.2656 5.8281-1.2656h2.8906v-0.39062c0-0.76953-0.30859-1.332-0.92188-1.6875-0.61719-0.36328-1.5703-0.54688-2.8594-0.54688-1.0547 0-2.0312 0.10547-2.9375 0.3125-0.89844 0.21094-1.7305 0.52344-2.5 0.9375v-3.7344c1.0391-0.25 2.0859-0.44141 3.1406-0.57812 1.0625-0.13281 2.125-0.20312 3.1875-0.20312 2.7578 0 4.75 0.54688 5.9688 1.6406 1.2266 1.0859 1.8438 2.8555 1.8438 5.3125z"/>
  </symbol>
  <symbol id="d" overflow="visible">
   <path d="m7.7031-19.656v4.3438h5.0469v3.5h-5.0469v6.5c0 0.71094 0.14062 1.1875 0.42188 1.4375s0.83594 0.375 1.6719 0.375h2.5156v3.5h-4.1875c-1.9375 0-3.3125-0.39844-4.125-1.2031-0.80469-0.8125-1.2031-2.1797-1.2031-4.1094v-6.5h-2.4219v-3.5h2.4219v-4.3438z"/>
  </symbol>
  <symbol id="k" overflow="visible">
   <path d="m12.766-13.078v-8.2031h4.9219v21.281h-4.9219v-2.2188c-0.66797 0.90625-1.4062 1.5703-2.2188 1.9844s-1.7578 0.625-2.8281 0.625c-1.8867 0-3.4336-0.75-4.6406-2.25-1.2109-1.5-1.8125-3.4258-1.8125-5.7812 0-2.3633 0.60156-4.2969 1.8125-5.7969 1.207-1.5 2.7539-2.25 4.6406-2.25 1.0625 0 2 0.21484 2.8125 0.64062 0.82031 0.42969 1.5664 1.0859 2.2344 1.9688zm-3.2188 9.9219c1.0391 0 1.8359-0.37891 2.3906-1.1406 0.55078-0.76953 0.82812-1.8828 0.82812-3.3438 0-1.457-0.27734-2.5664-0.82812-3.3281-0.55469-0.76953-1.3516-1.1562-2.3906-1.1562-1.043 0-1.8398 0.38672-2.3906 1.1562-0.55469 0.76172-0.82812 1.8711-0.82812 3.3281 0 1.4609 0.27344 2.5742 0.82812 3.3438 0.55078 0.76172 1.3477 1.1406 2.3906 1.1406z"/>
  </symbol>
  <symbol id="j" overflow="visible">
   <path d="m10.5-3.1562c1.0508 0 1.8516-0.37891 2.4062-1.1406 0.55078-0.76953 0.82812-1.8828 0.82812-3.3438 0-1.457-0.27734-2.5664-0.82812-3.3281-0.55469-0.76953-1.3555-1.1562-2.4062-1.1562-1.0547 0-1.8594 0.38672-2.4219 1.1562-0.55469 0.77344-0.82812 1.8828-0.82812 3.3281 0 1.4492 0.27344 2.5586 0.82812 3.3281 0.5625 0.77344 1.3672 1.1562 2.4219 1.1562zm-3.25-9.9219c0.67578-0.88281 1.4219-1.5391 2.2344-1.9688 0.82031-0.42578 1.7656-0.64062 2.8281-0.64062 1.8945 0 3.4453 0.75 4.6562 2.25 1.207 1.5 1.8125 3.4336 1.8125 5.7969 0 2.3555-0.60547 4.2812-1.8125 5.7812-1.2109 1.5-2.7617 2.25-4.6562 2.25-1.0625 0-2.0078-0.21094-2.8281-0.625-0.8125-0.42578-1.5586-1.0859-2.2344-1.9844v2.2188h-4.8906v-21.281h4.8906z"/>
  </symbol>
  <symbol id="i" overflow="visible">
   <path d="m0.34375-15.312h4.8906l4.125 10.391 3.5-10.391h4.8906l-6.4375 16.766c-0.64844 1.6953-1.4023 2.8828-2.2656 3.5625-0.86719 0.6875-2 1.0312-3.4062 1.0312h-2.8438v-3.2188h1.5312c0.83203 0 1.4375-0.13672 1.8125-0.40625 0.38281-0.26172 0.67969-0.73047 0.89062-1.4062l0.14062-0.42188z"/>
  </symbol>
  <symbol id="h" overflow="visible">
   <path d="m16.781-19.766v4.3125c-1.125-0.5-2.2266-0.875-3.2969-1.125-1.0625-0.25781-2.0703-0.39062-3.0156-0.39062-1.25 0-2.1797 0.17969-2.7812 0.53125-0.60547 0.34375-0.90625 0.88281-0.90625 1.6094 0 0.54297 0.20312 0.96875 0.60938 1.2812 0.40625 0.30469 1.1406 0.5625 2.2031 0.78125l2.25 0.45312c2.2695 0.44922 3.8789 1.1406 4.8281 2.0781 0.95703 0.92969 1.4375 2.2461 1.4375 3.9531 0 2.25-0.66797 3.9297-2 5.0312-1.3359 1.0938-3.3711 1.6406-6.1094 1.6406-1.3047 0-2.6055-0.125-3.9062-0.375-1.3047-0.23828-2.6055-0.59766-3.9062-1.0781v-4.4531c1.3008 0.69922 2.5625 1.2266 3.7812 1.5781 1.2188 0.34375 2.3906 0.51562 3.5156 0.51562 1.1562 0 2.0352-0.1875 2.6406-0.5625 0.61328-0.38281 0.92188-0.9375 0.92188-1.6562 0-0.63281-0.21094-1.125-0.625-1.4688-0.41797-0.34375-1.2461-0.65625-2.4844-0.9375l-2.0312-0.4375c-2.043-0.4375-3.5391-1.1328-4.4844-2.0938-0.9375-0.95703-1.4062-2.25-1.4062-3.875 0-2.0312 0.65625-3.5938 1.9688-4.6875s3.1953-1.6406 5.6562-1.6406c1.125 0 2.2734 0.085938 3.4531 0.25 1.1875 0.16797 2.4141 0.42188 3.6875 0.76562z"/>
  </symbol>
  <symbol id="g" overflow="visible">
   <path d="m16.547-12.766c0.61328-0.94531 1.3477-1.6719 2.2031-2.1719 0.85156-0.5 1.7891-0.75 2.8125-0.75 1.7578 0 3.0977 0.54688 4.0156 1.6406 0.92578 1.0859 1.3906 2.6562 1.3906 4.7188v9.3281h-4.9219v-7.9844-0.35938c0.007813-0.13281 0.015625-0.32031 0.015625-0.5625 0-1.082-0.16406-1.8633-0.48438-2.3438-0.3125-0.48828-0.82422-0.73438-1.5312-0.73438-0.92969 0-1.6484 0.38672-2.1562 1.1562-0.51172 0.76172-0.77344 1.8672-0.78125 3.3125v7.5156h-4.9219v-7.9844c0-1.6953-0.14844-2.7852-0.4375-3.2656-0.29297-0.48828-0.8125-0.73438-1.5625-0.73438-0.9375 0-1.6641 0.38672-2.1719 1.1562-0.51172 0.76172-0.76562 1.8594-0.76562 3.2969v7.5312h-4.9219v-15.312h4.9219v2.2344c0.60156-0.86328 1.2891-1.5156 2.0625-1.9531 0.78125-0.4375 1.6406-0.65625 2.5781-0.65625 1.0625 0 2 0.25781 2.8125 0.76562 0.8125 0.51172 1.4258 1.2305 1.8438 2.1562z"/>
  </symbol>
  <symbol id="t" overflow="visible">
   <path d="m2.5781-20.406h5.25v7.4375l7.5938-7.4375h6.1094l-9.8281 9.6562 10.844 10.75h-6.5938l-8.125-8.0469v8.0469h-5.25z"/>
  </symbol>
  <symbol id="f" overflow="visible">
   <path d="m2.3594-21.281h4.8906v21.281h-4.8906z"/>
  </symbol>
  <symbol id="s" overflow="visible">
   <path d="m12.422-21.281v3.2188h-2.7031c-0.6875 0-1.1719 0.125-1.4531 0.375-0.27344 0.25-0.40625 0.6875-0.40625 1.3125v1.0625h4.1875v3.5h-4.1875v11.812h-4.8906v-11.812h-2.4375v-3.5h2.4375v-1.0625c0-1.6641 0.46094-2.8984 1.3906-3.7031 0.92578-0.80078 2.3672-1.2031 4.3281-1.2031z"/>
  </symbol>
  <symbol id="e" overflow="visible">
   <path d="m9.6406-12.188c-1.0859 0-1.9141 0.39062-2.4844 1.1719-0.57422 0.78125-0.85938 1.9062-0.85938 3.375s0.28516 2.5938 0.85938 3.375c0.57031 0.77344 1.3984 1.1562 2.4844 1.1562 1.0625 0 1.875-0.38281 2.4375-1.1562 0.57031-0.78125 0.85938-1.9062 0.85938-3.375s-0.28906-2.5938-0.85938-3.375c-0.5625-0.78125-1.375-1.1719-2.4375-1.1719zm0-3.5c2.6328 0 4.6914 0.71484 6.1719 2.1406 1.4766 1.418 2.2188 3.3867 2.2188 5.9062 0 2.5117-0.74219 4.4805-2.2188 5.9062-1.4805 1.418-3.5391 2.125-6.1719 2.125-2.6484 0-4.7148-0.70703-6.2031-2.125-1.4922-1.4258-2.2344-3.3945-2.2344-5.9062 0-2.5195 0.74219-4.4883 2.2344-5.9062 1.4883-1.4258 3.5547-2.1406 6.2031-2.1406z"/>
  </symbol>
  <symbol id="r" overflow="visible">
   <path d="m17.75-9.3281v9.3281h-4.9219v-7.1094c0-1.3438-0.03125-2.2656-0.09375-2.7656s-0.16797-0.86719-0.3125-1.1094c-0.1875-0.3125-0.44922-0.55469-0.78125-0.73438-0.32422-0.17578-0.69531-0.26562-1.1094-0.26562-1.0234 0-1.8242 0.39844-2.4062 1.1875-0.58594 0.78125-0.875 1.8711-0.875 3.2656v7.5312h-4.8906v-21.281h4.8906v8.2031c0.73828-0.88281 1.5195-1.5391 2.3438-1.9688 0.83203-0.42578 1.75-0.64062 2.75-0.64062 1.7695 0 3.1133 0.54688 4.0312 1.6406 0.91406 1.0859 1.375 2.6562 1.375 4.7188z"/>
  </symbol>
  <symbol id="q" overflow="visible">
   <path d="m2.5781-20.406h5.875l7.4219 14v-14h4.9844v20.406h-5.875l-7.4219-14v14h-4.9844z"/>
  </symbol>
  <symbol id="p" overflow="visible">
   <path d="m2.1875-5.9688v-9.3438h4.9219v1.5312c0 0.83594-0.007813 1.875-0.015625 3.125-0.011719 1.25-0.015625 2.0859-0.015625 2.5 0 1.2422 0.03125 2.1328 0.09375 2.6719 0.070313 0.54297 0.17969 0.93359 0.32812 1.1719 0.20703 0.32422 0.47266 0.57422 0.79688 0.75 0.32031 0.16797 0.69141 0.25 1.1094 0.25 1.0195 0 1.8203-0.39062 2.4062-1.1719 0.58203-0.78125 0.875-1.8672 0.875-3.2656v-7.5625h4.8906v15.312h-4.8906v-2.2188c-0.74219 0.89844-1.5234 1.5586-2.3438 1.9844-0.82422 0.41406-1.7344 0.625-2.7344 0.625-1.7617 0-3.1055-0.53906-4.0312-1.625-0.92969-1.082-1.3906-2.6602-1.3906-4.7344z"/>
  </symbol>
  <symbol id="o" overflow="visible">
   <path d="m17.75-9.3281v9.3281h-4.9219v-7.1406c0-1.3203-0.03125-2.2344-0.09375-2.7344s-0.16797-0.86719-0.3125-1.1094c-0.1875-0.3125-0.44922-0.55469-0.78125-0.73438-0.32422-0.17578-0.69531-0.26562-1.1094-0.26562-1.0234 0-1.8242 0.39844-2.4062 1.1875-0.58594 0.78125-0.875 1.8711-0.875 3.2656v7.5312h-4.8906v-15.312h4.8906v2.2344c0.73828-0.88281 1.5195-1.5391 2.3438-1.9688 0.83203-0.42578 1.75-0.64062 2.75-0.64062 1.7695 0 3.1133 0.54688 4.0312 1.6406 0.91406 1.0859 1.375 2.6562 1.375 4.7188z"/>
  </symbol>
  <symbol id="n" overflow="visible">
   <path d="m2.5781-20.406h8.7344c2.5938 0 4.582 0.57812 5.9688 1.7344 1.3945 1.1484 2.0938 2.7891 2.0938 4.9219 0 2.1367-0.69922 3.7812-2.0938 4.9375-1.3867 1.1562-3.375 1.7344-5.9688 1.7344h-3.4844v7.0781h-5.25zm5.25 3.8125v5.7031h2.9219c1.0195 0 1.8047-0.25 2.3594-0.75 0.5625-0.5 0.84375-1.2031 0.84375-2.1094 0-0.91406-0.28125-1.6172-0.84375-2.1094-0.55469-0.48828-1.3398-0.73438-2.3594-0.73438z"/>
  </symbol>
  <symbol id="m" overflow="visible">
   <path d="m2.3594-15.312h4.8906v15.031c0 2.0508-0.49609 3.6172-1.4844 4.7031-0.98047 1.082-2.4062 1.625-4.2812 1.625h-2.4219v-3.2188h0.85938c0.92578 0 1.5625-0.21094 1.9062-0.625 0.35156-0.41797 0.53125-1.2461 0.53125-2.4844zm0-5.9688h4.8906v4h-4.8906z"/>
  </symbol>
  <symbol id="l" overflow="visible">
   <path d="m14.719-14.828v3.9844c-0.65625-0.45703-1.3242-0.79688-2-1.0156-0.66797-0.21875-1.3594-0.32812-2.0781-0.32812-1.3672 0-2.4336 0.40234-3.2031 1.2031-0.76172 0.79297-1.1406 1.9062-1.1406 3.3438 0 1.4297 0.37891 2.543 1.1406 3.3438 0.76953 0.79297 1.8359 1.1875 3.2031 1.1875 0.75781 0 1.4844-0.10938 2.1719-0.32812 0.6875-0.22656 1.3203-0.56641 1.9062-1.0156v4c-0.76172 0.28125-1.5391 0.48828-2.3281 0.625-0.78125 0.14453-1.5742 0.21875-2.375 0.21875-2.7617 0-4.9219-0.70703-6.4844-2.125-1.5547-1.4141-2.3281-3.3828-2.3281-5.9062 0-2.5312 0.77344-4.5039 2.3281-5.9219 1.5625-1.4141 3.7227-2.125 6.4844-2.125 0.80078 0 1.5938 0.074219 2.375 0.21875 0.78125 0.13672 1.5547 0.35156 2.3281 0.64062z"/>
  </symbol>
 </defs>
 <g>
  <path d="m528.54 194.12c-18.781-14.113-40.551-24.062-62.727-31.543-22.215-7.4922-45.293-12.602-68.578-15.289-24.219-2.8008-48.777-2.207-73.078-0.88672-22.281 1.2031-44.566 3.543-66.434 8.0547-26.73 5.5156-53.535 14.398-75.773 30.648-6.9062 5.0469-13.262 10.797-19.168 16.984-2.7148 2.8555-5.3477 5.8008-7.9922 8.7305-4.168 4.6094-8.1914 8.5469-13.523 11.75-4.9727 2.9727-9.582 6.6133-13.395 10.988-6.1211 7.0352-9.8945 15.938-10.012 25.312-0.10547 8.5625 2.8789 19.57 9.6484 25.312 1.0625 0.89453 2.2617 1.6445 3.5547 2.1914 0.83984 0.35156 1.3203 0.11719 1.25 1.1211-0.042968 0.58203-0.089844 1.1602-0.11719 1.7422-0.14453 2.457-0.17188 4.9336-0.066407 7.3984 0.20703 4.6641 0.91797 9.3008 2.1328 13.816 2.6602 9.9062 7.707 18.984 13.816 27.164 8.0039 10.719 17.719 20.098 27.809 28.824 8.8477 7.6602 18.68 14.051 29.125 19.305 21.969 11.047 46.109 17.277 70.258 21.359 25.621 4.3359 51.805 6.6758 77.773 7.4375 27.352 0.80078 54.824-0.97266 81.723-6.0547 19.332-3.6523 38.387-8.9922 56.609-16.445 20.867-8.5273 41.707-19.965 57.848-35.914 16.699-16.504 23.48-40.195 22.367-63.281-0.085938-1.6797-0.19531-3.3594-0.33203-5.0352-0.078125-0.99219-0.12891-0.94531 0.72656-1.5 1.0195-0.66016 1.9648-1.4297 2.8398-2.2734 3.8711-3.7539 6.1602-8.8945 6.9648-14.18 0.69531-4.5352 0.32031-9.1797-0.77344-13.621-2.418-9.8789-8.0352-18.781-14.301-26.656-10.836-13.621-24.32-25.059-38.176-35.461-44.055-33.074 48.453 36.363 0 0zm25.246 143.21c-4.4727 8.2422-11.867 14.98-19.09 20.77-11.742 9.4141-24.965 16.93-38.641 23.133-42.629 19.32-90.367 26.059-136.85 25.344-25.199-0.37891-50.613-2.582-75.523-6.418-23.688-3.6445-47.434-9.1562-69.352-19.062-21.973-9.9297-40.969-25.363-56.254-43.98-9.4648-11.523-17.07-24.941-17.859-40.117-0.066406-1.2539-0.09375-2.4961-0.085938-3.7578 0.011719-1.1406 0.042969-2.2852 0.11328-3.4336 0.042968-0.75 0.10156-1.5 0.17188-2.2461 0.10156-0.95703 1.3008-0.89062 2.1445-1.1875 1.4297-0.50781 2.25-1.1016 3.7539-0.85547 1.0586 0.17188 2.1289 0.35938 3.1875 0.56641 2.9609 0.55469 5.9141 1.1914 8.832 1.9609 2.9336 0.76562 5.8516 1.6523 8.6758 2.7656 1.3203 0.52734 1.6758 1.625 2.1328 2.918 1.8711 5.2305 2.7617 10.809 3.8867 16.223 2.0039 9.6328 4.4297 21.219 12.84 27.43 10.801 7.9805 26.965 3.5234 38.723 0.48828 6.9453-1.7969 13.859-3.9609 20.957-5.0781 4.1562-0.65625 9.8438-1.5586 12.008 2.9805 1.7539 3.6836 2.5195 7.7578 4.3438 11.426 1.8945 3.8242 4.6602 7.1172 8.2773 9.418 5.1953 3.3086 11.594 4.4062 17.625 4.9883 6.7578 0.64453 13.395-0.14062 20.016-1.4883 11.789-2.3906 23.754-5.3633 35.828-5.6992 14.23-0.39062 27.793 4.5586 41.52 7.5391 13.797 2.9844 27.836 3.6953 41.754 1.0703 19.719-3.7227 38.652-12.059 50.848-28.465 1.7461-2.3594 3.3672-4.8086 5.1445-7.1406 2.9531-3.8477 6.332-5.3984 10.938-6.6523 9.7891-2.6719 19.988-3.5234 29.746-6.3633 8.7539-2.5469 17.121-6.6875 21.035-15.371 0.81641-1.8203 1.4609-3.7109 2.0117-5.6289 0.30078-1.0352 0.20703-1.8047 1.3008-2.1172 0.86328-0.25391 1.7578-0.42578 2.6484-0.58203 4.1875-0.75 8.4492-1.0312 12.66-1.6523 1.2773 16.871-1.3125 33.258-9.4648 48.277-12.273 22.613 11.082-20.418 0 0zm19.957-68.383c-0.67578 4.0273-3.1133 9.8555-7.4609 11.238-4.9609 1.5859-10.617 1.5195-15.734 2.3203 0.066407 0.38672 0.13281 0.77734 0.20312 1.1602-0.37891-0.98437-0.15234-1.1367-1.3203-1.043-1.6367 0.14062-3.2773 0.21875-4.9102 0.17969-1.6953-0.042969-3.6172-0.11719-5.1953-0.81641-1.8867-0.84375-3.6406-2.7812-5.2812-4.0586 1.0234 1.6641 2.043 3.332 3.0703 4.9961 0.78516 1.2695 1.4102 2.5859 1.7344 4.0547 0.039063 0.17969 0.48047 3.3945 0.26172 3.3945-1.5469 5.5781-3.7734 9.9297-8.9883 12.789-5.7109 3.1289-12.27 4.5352-18.602 5.7695-6.8828 1.3477-13.883 2.3359-20.637 4.2734-6.0859 1.7461-10.617 4.3672-14.488 9.4375-4.5312 5.9453-8.4219 12.074-14.242 16.906-8.4453 7.0156-18.961 11.082-29.469 13.883-3.3828 0.90234-6.8281 1.625-10.289 2.1602-1.4883 0.23047-2.9805 0.42188-4.4805 0.58203-1.1133 0.11719-2.2344 0.22266-3.3594 0.29688-0.125 0.18359 0.0625 0.94141 0.078125 1.1758-0.52734-1.3008-0.55859-1.1367-2.0312-1.0742-1.2109 0.050782-2.4297 0.085938-3.6328 0.089844-2.4883 0-4.9844-0.125-7.4648-0.33203-4.6484-0.38672-9.2578-1.1406-13.828-2.0938-7.6211-1.5898-15.098-3.8008-22.707-5.4805-9.9297-2.1953-19.719-2.9453-29.836-1.7031-7.8789 0.98047-15.645 2.4062-23.418 4.0156-2.9023 0.59766-5.7891 1.2109-8.707 1.7422-1.832 0.33594-3.668 0.59766-5.5234 0.77734-1.082 0.10156-2.168 0.15625-3.2539 0.18359-0.85547 0.35938-0.72656-0.054687-0.71875 1.1914-0.35938-1.1211-0.21094-1.1602-1.4961-1.2031-1.0352-0.035156-2.0664-0.089843-3.1016-0.17187-1.9922-0.16797-3.9883-0.46094-5.957-0.82813-5.1914-0.98437-10.086-2.8516-12.969-7.5312-2.3477-3.793-3.0742-8.2812-4.8711-12.309-2.2383-5.0195-6.6289-8.3438-12.234-8.5586-7.8633-0.59766-15.848 1.8945-23.375 3.8633-7.3242 1.9258-14.656 4.0586-22.18 5-6.7422 0.82422-14.621 0.91797-19.188-4.9219-5.1562-6.6016-6.4023-15.953-8.0195-23.918-1.3281-6.5586-2.4062-18.094-9.7773-20.91-7.1328-2.7227-15.328-3.332-22.871-4.1055 0.91406-5.1641-0.58984-10.359-1.6289-15.371-0.56641 4.3008-0.42578 10.199-3.7305 13.422-1.2812 1.2617-2.6836 1.457-4.3867 1.8242-0.44141 0.10547-0.89062 0.15234-1.3438 0.14062-0.60938-0.015624-1.2148-0.11719-1.7969-0.30859-0.75781-0.25781-0.65625 0.19141-0.96875 0.87891 0.26953-1.3828 0.11719-1.082-0.95312-2.0117-1.1641-0.97266-1.9727-2.4141-2.7109-3.7109-1.082-1.8984-1.9766-3.8867-2.625-5.9766-1.2227-3.9297-1.6016-8.1016-1.1094-12.191 1.2109-10.121 7.6367-18.559 15.781-24.332 4.3867-3.1133 8.9336-5.4141 12.824-9.1953 2.8945-2.8125 5.5547-5.8633 8.2617-8.8477 6.5977-7.3125 13.52-14.348 21.41-20.277 24.023-18.059 54.012-27.707 83.418-32.602 13.875-2.3125 27.754-4.1484 41.781-5.3125 12.5-1.0352 25.047-1.332 37.586-1.8125 42.016-1.6172 84.086 4.8828 123.57 19.402 22.566 8.293 43.309 19.492 62.008 34.652 14.43 11.699 29.727 25.457 37.566 42.719 2.5977 5.6875 4.3828 12.188 3.3125 18.488-1.1953 7.0781 1.7305-10.207 0 0z"/>
  <path d="m437.03 245.24c-3.5273-1.25-7.1016-2.3789-10.652-3.5234-1.5508-0.50391-4.4961-0.77734-5.4141-2.2734-1.2812-2.082-1.5391-4.7812-2.457-7.0508-2.3398-5.7734-7.8672-8.1875-13.434-10.148-6.0859-2.1445-12.48-2.8008-18.906-2.6133-6.7148 0.19531-13.395 0.99609-20.098 1.3086-3.375 0.16406-6.832 0.48047-10.148-0.32031-3.5625-0.86328-6.8945-2.4883-10.266-3.8906-6.0547-2.5273-12.555-4.3555-19.051-2.3984-5.5664 1.6875-8.9648 6.1133-13.906 8.7812-3.5508 1.9141-8.5117 0.90625-12.332 0.53906-5.0195-0.48828-10.281-1.6172-15.328-1.0547-4.5195 0.50781-5.918 4.3516-6.4297 8.3984-0.33203 2.5586-0.36328 5.1523-0.44922 7.7344-0.039062 1.1875 0.125 2.582-0.32031 3.5898h0.003906s-0.066406 0.13281-0.20312 0.33594c-0.0625 0.09375-0.125 0.17969-0.19531 0.25781-0.50781 0.60547-1.5469 1.2812-3.375 1.4609-8.1367 0.78906-19.691-0.12891-23.219-1.2422 10.617 4.3164 21.23 8.6406 31.852 12.957 15.715 6.4023 32.219 10.797 49.012 13.188 12.137 1.7305 24.434 2.4883 36.656 1.2383 11.523-1.1875 22.887-3.7539 33.977-7.0664 14.035-4.1992 27.52-9.6992 40.617-16.219-1.9883-0.65234-3.957-1.3242-5.9336-1.9883zm-90.766 20.457c-0.16406-0.007813-0.15625-0.007813 0 0zm0.039063 0.003906c0.17187 0.003906 0.46484 0.011719 0.84375 0.027344-0.42578-0.015625-0.69141-0.027344-0.84375-0.027344zm11.859 0.41406c0.41016 0.011718 0.47656 0.011718 0 0zm-5.7266-0.20703c-18.16-0.62891-36.25-3.9492-53.555-9.457 36.23-11.344 77.57-14.438 113.97-1.9258-19.219 6.8516-39.875 12.105-60.418 11.383zm71.695-15.707c-2.418 0.003906-4.3516-0.99219-6.6289-1.8203-3.4766-1.2656-6.9961-2.4062-10.551-3.4336-6.8672-1.9805-13.867-3.5234-20.922-4.6094-14.32-2.2188-28.891-2.5977-43.316-1.3164-18.344 1.6172-36.949 5.6328-53.996 12.75-1.2891 0.54297-1.4336 0.58203-2.9062-0.023438-1.4609-0.59766-2.9102-1.2266-4.3672-1.8125-0.32422-0.12891-0.54687-1.2812-0.66016-1.5898-0.32031-0.83984-0.19531-0.42578 0.09375-0.95703 2.2188-1.5195 2.2891-4.1875 2.4141-6.6523 0.11328-2.3984 0.12891-4.7812 0.30859-7.1719 0.09375-1.332-0.054687-4.6484 1.1602-5.5898 1.6367-0.72656 4.2109-0.21875 5.9258-0.078124 3.6914 0.30859 7.3594 0.81641 11.055 1.1602 3.1367 0.29297 6.4023 0.58203 9.5273 0.054687 3.1914-0.54297 5.8477-2.4805 8.3086-4.4727 4.1445-3.3477 8.2383-6.2109 13.828-5.9258 7.1172 0.37109 13.316 4.7266 20.035 6.6367 6.6875 1.9023 14.094 0.81641 20.922 0.29297 11.742-0.90234 23.023-1.7266 33.914 3.6055 2.4453 1.1914 4.2734 2.3633 5.3438 4.957 0.89062 2.1445 1.2812 4.4648 2.1992 6.5977 2.2188 5.1289 8.5195 5.7305 13.289 7.3086-1.6484 0.69922-3.3125 1.4062-4.9766 2.0898z"/>
  <use x="70" y="644" xlink:href="#u"/>
  <use x="90.550781" y="644" xlink:href="#b"/>
  <use x="104.359375" y="644" xlink:href="#a"/>
  <use x="123.347656" y="644" xlink:href="#c"/>
  <use x="142.242188" y="644" xlink:href="#d"/>
  <use x="155.628906" y="644" xlink:href="#a"/>
  <use x="174.617188" y="644" xlink:href="#k"/>
  <use x="204.410156" y="644" xlink:href="#j"/>
  <use x="224.453125" y="644" xlink:href="#i"/>
  <use x="252.453125" y="644" xlink:href="#h"/>
  <use x="272.617188" y="644" xlink:href="#c"/>
  <use x="291.511719" y="644" xlink:href="#g"/>
  <use x="320.6875" y="644" xlink:href="#c"/>
  <use x="339.582031" y="644" xlink:href="#b"/>
  <use x="353.390625" y="644" xlink:href="#c"/>
  <use x="382.03125" y="644" xlink:href="#t"/>
  <use x="403.730469" y="644" xlink:href="#a"/>
  <use x="422.71875" y="644" xlink:href="#f"/>
  <use x="432.320312" y="644" xlink:href="#f"/>
  <use x="441.914062" y="644" xlink:href="#a"/>
  <use x="460.90625" y="644" xlink:href="#b"/>
  <use x="70" y="672" xlink:href="#s"/>
  <use x="82.183594" y="672" xlink:href="#b"/>
  <use x="95.992188" y="672" xlink:href="#e"/>
  <use x="115.226562" y="672" xlink:href="#g"/>
  <use x="154.152344" y="672" xlink:href="#d"/>
  <use x="167.535156" y="672" xlink:href="#r"/>
  <use x="187.46875" y="672" xlink:href="#a"/>
  <use x="216.207031" y="672" xlink:href="#q"/>
  <use x="239.640625" y="672" xlink:href="#e"/>
  <use x="258.878906" y="672" xlink:href="#p"/>
  <use x="278.8125" y="672" xlink:href="#o"/>
  <use x="308.492188" y="672" xlink:href="#n"/>
  <use x="329.015625" y="672" xlink:href="#b"/>
  <use x="342.820312" y="672" xlink:href="#e"/>
  <use x="362.058594" y="672" xlink:href="#m"/>
  <use x="371.65625" y="672" xlink:href="#a"/>
  <use x="390.648438" y="672" xlink:href="#l"/>
  <use x="407.242188" y="672" xlink:href="#d"/>
 </g>
</svg>
